#!OML:ASF H:\MichaelJackson\Top Level 1\Subject 1\Session 1\male.ASF
:FULLY-SPECIFIED
:DEGREES
147
root -14.271 16.9566 -15.3805 -0.418183 4.48931 -6.93424
lowerback 2.39493 2.76557 -0.580843
upperback -0.978568 3.74878 3.06839
thorax -2.59193 1.91154 3.30504
lowerneck -8.6865 -3.94326 1.102
upperneck 3.57725 -5.41925 0.637759
head 2.63171 -2.65386 -0.251063
rclavicle 3.45854e-015 1.26228e-014
rhumerus -38.4334 2.72106 -73.6329
rradius 59.8511
rwrist 1.45085
rhand -15.3079 -13.3965
rfingers 7.12502
rthumb 10.8677 -43.0953
lclavicle 3.45854e-015 1.26228e-014
lhumerus -49.0901 1.86738 79.6164
lradius 42.3046
lwrist -0.452114
lhand -0.6718 11.3394
lfingers 7.12502
lthumb 24.9468 39.7311
rfemur -37.3569 -11.6967 3.60507
rtibia 98.7641
rfoot 33.0785 24.3281
rtoes 8.84643
lfemur -25.5001 -4.71929 -10.4712
ltibia 39.1153
lfoot -14.5168 -5.99835
ltoes 7.45553
148
root -14.2559 16.9808 -15.3554 -1.25569 5.28974 -7.25084
lowerback 3.18222 2.49467 -0.462983
upperback -0.690093 3.39853 3.26555
thorax -2.72018 1.73431 3.43292
lowerneck -8.59237 -3.96028 1.08108
upperneck 3.55471 -5.43516 0.586381
head 2.60546 -2.66458 -0.261841
rclavicle -6.88331e-014 -2.96189e-014
rhumerus -38.8867 2.47423 -72.44
rradius 60.0998
rwrist 3.95485
rhand -17.3464 -14.1567
rfingers 7.12502
rthumb 8.90113 -43.949
lclavicle -6.88331e-014 -2.96189e-014
lhumerus -48.3873 0.551181 80.1643
lradius 42.4824
lwrist -0.955392
lhand -0.333783 10.7751
lfingers 7.12502
lthumb 25.2706 39.1214
rfemur -39.6362 -10.4552 2.21258
rtibia 102.304
rfoot 34.4563 24.3759
rtoes 10.6749
lfemur -24.4757 -5.30503 -10.3809
ltibia 38.6255
lfoot -14.421 -6.17084
ltoes 7.12614
149
root -14.2414 17.0027 -15.3309 -2.13026 6.06961 -7.62073
lowerback 3.97944 2.21386 -0.285063
upperback -0.380856 3.04032 3.47164
thorax -2.8282 1.552 3.54376
lowerneck -8.52653 -3.96882 1.05619
upperneck 3.54501 -5.44094 0.552015
head 2.58954 -2.66945 -0.266969
rclavicle -2.94392e-016 -3.0911e-014
rhumerus -39.3373 2.26402 -71.2684
rradius 60.3127
rwrist 6.84377
rhand -19.3742 -14.9894
rfingers 7.12502
rthumb 6.94395 -44.8555
lclavicle -2.94392e-016 -3.0911e-014
lhumerus -47.5896 -0.686234 80.6411
lradius 42.5914
lwrist -1.40348
lhand -0.106675 10.4038
lfingers 7.12502
lthumb 25.4882 38.7192
rfemur -41.8355 -9.10938 0.797519
rtibia 105.286
rfoot 35.1152 23.6493
rtoes 12.1196
lfemur -23.434 -5.96004 -10.2471
ltibia 38.1763
lfoot -14.3631 -6.22147
ltoes 6.63201
150
root -14.227 17.0225 -15.3073 -3.02643 6.83911 -8.02604
lowerback 4.7749 1.91908 -0.0640556
upperback -0.0604902 2.6691 3.67945
thorax -2.92012 1.36258 3.64029
lowerneck -8.47472 -3.96966 1.04049
upperneck 3.54536 -5.43822 0.524751
head 2.57962 -2.66954 -0.271516
rclavicle 4.84674e-014 6.48038e-014
rhumerus -39.7857 2.05747 -70.1125
rradius 60.4997
rwrist 10.0199
rhand -21.2873 -15.8647
rfingers 7.12502
rthumb 5.09697 -45.7834
lclavicle 4.84674e-014 6.48038e-014
lhumerus -46.7204 -1.8147 81.0358
lradius 42.6525
lwrist -1.76007
lhand 0.0150109 10.2465
lfingers 7.12502
lthumb 25.6048 38.5452
rfemur -43.9392 -7.68692 -0.635734
rtibia 107.586
rfoot 35.2157 22.0972
rtoes 13.3722
lfemur -22.3925 -6.66412 -10.0924
ltibia 37.76
lfoot -14.3325 -6.19962
ltoes 6.05875
151
root -14.2117 17.0407 -15.2841 -3.93293 7.59693 -8.44445
lowerback 5.56625 1.60909 0.181888
upperback 0.26041 2.28307 3.88061
thorax -3.00636 1.16563 3.72423
lowerneck -8.42675 -3.96175 1.04053
upperneck 3.55715 -5.4259 0.49964
head 2.57394 -2.66443 -0.277889
rclavicle -1.64673e-014 -2.74323e-014
rhumerus -40.2345 1.82459 -68.9684
rradius 60.6761
rwrist 13.3688
rhand -22.824 -16.8773
rfingers 7.12502
rthumb 3.61311 -46.8265
lclavicle -1.64673e-014 -2.74323e-014
lhumerus -45.8151 -2.8107 81.3431
lradius 42.6863
lwrist -2.00791
lhand 0.0161307 10.2751
lfingers 7.12502
lthumb 25.6058 38.5736
rfemur -45.9127 -6.21184 -2.0796
rtibia 109.088
rfoot 34.908 19.6818
rtoes 14.7469
lfemur -21.356 -7.37688 -9.94463
ltibia 37.3648
lfoot -14.3145 -6.16118
ltoes 5.48584
152
root -14.1951 17.0575 -15.2622 -4.82856 8.35085 -8.86672
lowerback 6.34153 1.28208 0.443076
upperback 0.575704 1.87964 4.07552
thorax -3.08715 0.960153 3.80214
lowerneck -8.37253 -3.94464 1.05201
upperneck 3.56296 -5.40243 0.475277
head 2.56481 -2.65363 -0.285185
rclavicle 1.36167e-014 4.57205e-015
rhumerus -40.6733 1.54453 -67.8278
rradius 60.8633
rwrist 16.7423
rhand -24.0346 -17.8155
rfingers 7.12502
rthumb 2.44397 -47.7812
lclavicle 1.36167e-014 4.57205e-015
lhumerus -44.8743 -3.65147 81.5758
lradius 42.6871
lwrist -2.17123
lhand -0.134529 10.46
lfingers 7.12502
lthumb 25.4615 38.7792
rfemur -47.7237 -4.74135 -3.5062
rtibia 109.695
rfoot 34.3254 16.4321
rtoes 16.6313
lfemur -20.3519 -8.07036 -9.81266
ltibia 36.9844
lfoot -14.2973 -6.15357
ltoes 4.96332
